<svg version="1.1" id="Layer_1" xmlns="http://www.w3.org/2000/svg" xmlns:xlink="http://www.w3.org/1999/xlink" x="0px" y="0px"
	 width="100%" viewBox="0 0 512 512" enable-background="new 0 0 512 512" xml:space="preserve">
<path fill="#012B4E" opacity="1.000000" stroke="none" 
	d="
M286.000000,513.000000 
	C265.979095,513.000000 245.958206,513.000000 225.384430,512.635010 
	C222.524384,511.535461 220.251663,510.658783 217.904327,510.089966 
	C204.175522,506.763153 190.120041,504.449280 176.746399,500.054260 
	C135.325150,486.441864 99.791382,463.379913 69.895790,431.530823 
	C49.042755,409.315186 32.889820,384.141266 20.949383,356.205048 
	C12.667537,336.828644 7.164121,316.647400 3.825576,295.844879 
	C3.444949,293.473175 1.968398,291.277374 1.000002,289.000000 
	C1.000000,267.979095 1.000000,246.958206 1.363225,225.388657 
	C2.440367,222.872635 3.334394,220.950333 3.839575,218.930756 
	C7.712615,203.447388 10.370143,187.553268 15.538045,172.519913 
	C33.242840,121.016937 65.029808,79.750763 109.262901,48.108246 
	C144.095718,23.190306 182.877304,8.246876 225.376709,2.902676 
	C226.644196,2.743294 227.794861,1.655131 229.000000,1.000002 
	C247.687561,1.000000 266.375122,1.000000 285.638367,1.370785 
	C287.066498,2.155302 287.885864,2.832761 288.776215,2.944598 
	C319.162811,6.761336 347.857239,15.789567 375.069000,29.924307 
	C410.465851,48.310661 439.821655,73.699348 463.357330,105.696213 
	C489.728699,141.548172 505.917328,181.612991 511.086365,225.978241 
	C511.210663,227.045334 512.339600,227.995377 513.000000,229.000000 
	C513.000000,247.687561 513.000000,266.375122 512.632080,285.636139 
	C511.838409,287.227722 511.158905,288.213287 511.023529,289.268646 
	C505.123383,335.273926 487.916962,376.659729 459.645264,413.320892 
	C434.718842,445.644043 403.683044,470.715088 366.861084,488.344238 
	C342.359161,500.074982 316.510559,507.597565 289.510193,511.040375 
	C288.276886,511.197632 287.167236,512.324646 286.000000,513.000000 
M96.911537,96.411446 
	C91.613487,102.169441 85.918732,107.613785 81.079567,113.734573 
	C38.830120,167.173630 22.405409,227.744308 33.407757,294.956329 
	C42.574944,350.957520 69.856720,397.358887 113.956902,432.929443 
	C166.824051,475.571289 227.617752,491.519043 294.649353,480.633759 
	C350.661011,471.538025 397.120667,444.304565 432.742157,400.272125 
	C475.576202,347.324158 491.558624,286.362579 480.592865,219.145386 
	C471.486176,163.323654 444.354340,116.998566 400.492889,81.443413 
	C347.430664,38.429852 286.348694,22.519503 218.931519,33.426785 
	C171.884094,41.038483 131.355392,62.318367 96.911537,96.411446 
z"/>
<path fill="#000001" opacity="1.000000" stroke="none" 
	d="
M513.000000,228.531342 
	C512.339600,227.995377 511.210663,227.045334 511.086365,225.978241 
	C505.917328,181.612991 489.728699,141.548172 463.357330,105.696213 
	C439.821655,73.699348 410.465851,48.310661 375.069000,29.924307 
	C347.857239,15.789567 319.162811,6.761336 288.776215,2.944598 
	C287.885864,2.832761 287.066498,2.155302 286.107025,1.370785 
	C361.593842,1.000000 437.187714,1.000000 513.000000,1.000000 
	C513.000000,76.687424 513.000000,152.375046 513.000000,228.531342 
z"/>
<path fill="#000001" opacity="1.000000" stroke="none" 
	d="
M286.468628,513.000000 
	C287.167236,512.324646 288.276886,511.197632 289.510193,511.040375 
	C316.510559,507.597565 342.359161,500.074982 366.861084,488.344238 
	C403.683044,470.715088 434.718842,445.644043 459.645264,413.320892 
	C487.916962,376.659729 505.123383,335.273926 511.023529,289.268646 
	C511.158905,288.213287 511.838409,287.227722 512.632080,286.104797 
	C513.000000,361.593689 513.000000,437.187378 513.000000,513.000000 
	C437.645905,513.000000 362.291626,513.000000 286.468628,513.000000 
z"/>
<path fill="#000001" opacity="1.000000" stroke="none" 
	d="
M228.531342,1.000002 
	C227.794861,1.655131 226.644196,2.743294 225.376709,2.902676 
	C182.877304,8.246876 144.095718,23.190306 109.262901,48.108246 
	C65.029808,79.750763 33.242840,121.016937 15.538045,172.519913 
	C10.370143,187.553268 7.712615,203.447388 3.839575,218.930756 
	C3.334394,220.950333 2.440367,222.872635 1.363225,224.919998 
	C1.000000,150.405640 1.000000,75.811287 1.000000,1.000000 
	C76.687424,1.000000 152.375046,1.000000 228.531342,1.000002 
z"/>
<path fill="#000001" opacity="1.000000" stroke="none" 
	d="
M1.000002,289.468658 
	C1.968398,291.277374 3.444949,293.473175 3.825576,295.844879 
	C7.164121,316.647400 12.667537,336.828644 20.949383,356.205048 
	C32.889820,384.141266 49.042755,409.315186 69.895790,431.530823 
	C99.791382,463.379913 135.325150,486.441864 176.746399,500.054260 
	C190.120041,504.449280 204.175522,506.763153 217.904327,510.089966 
	C220.251663,510.658783 222.524384,511.535461 224.915771,512.635010 
	C150.406296,513.000000 75.812599,513.000000 1.000000,513.000000 
	C1.000000,438.645905 1.000000,364.291626 1.000002,289.468658 
z"/>
<path fill="#017CAA" opacity="1.000000" stroke="none" 
	d="
M97.161766,96.161606 
	C131.355392,62.318367 171.884094,41.038483 218.931519,33.426785 
	C286.348694,22.519503 347.430664,38.429852 400.492889,81.443413 
	C444.354340,116.998566 471.486176,163.323654 480.592865,219.145386 
	C491.558624,286.362579 475.576202,347.324158 432.742157,400.272125 
	C397.120667,444.304565 350.661011,471.538025 294.649353,480.633759 
	C227.617752,491.519043 166.824051,475.571289 113.956902,432.929443 
	C69.856720,397.358887 42.574944,350.957520 33.407757,294.956329 
	C22.405409,227.744308 38.830120,167.173630 81.079567,113.734573 
	C85.918732,107.613785 91.613487,102.169441 97.161766,96.161606 
M359.675995,186.182159 
	C364.352814,165.660980 369.029663,145.139801 373.750153,124.427101 
	C371.864960,123.925278 370.609253,123.488846 369.316742,123.261917 
	C337.552399,117.685165 305.716431,116.639626 274.009399,123.192436 
	C231.103073,132.059769 196.787506,153.536697 175.788727,193.135422 
	C152.420502,237.202377 144.515213,284.690887 145.835617,334.070679 
	C145.840561,334.256134 146.230316,334.431335 146.668976,334.807251 
	C147.512863,332.547546 148.343719,330.424225 149.102661,328.275513 
	C163.646637,287.099762 189.131668,256.038544 230.976501,240.390579 
	C236.325531,238.390274 239.806503,235.633438 242.280533,230.393463 
	C248.772736,216.642960 259.762421,207.553604 273.905426,202.228363 
	C293.017944,195.031952 312.878021,194.059357 332.963867,195.486099 
	C340.867310,196.047516 348.734283,197.122238 356.852722,197.988266 
	C357.764404,194.069504 358.589844,190.521530 359.675995,186.182159 
M261.026428,241.450897 
	C237.680786,246.536880 216.753372,256.567535 198.535049,272.095703 
	C174.090515,292.930695 158.839615,319.680054 149.206039,349.853241 
	C145.541153,361.332031 142.903687,373.138824 139.803619,384.774902 
	C141.250778,385.298553 141.703583,385.605164 142.156906,385.605957 
	C166.468292,385.647766 190.780258,385.726410 215.089630,385.513184 
	C216.424255,385.501495 218.299911,383.274323 218.969620,381.678070 
	C223.458389,370.979340 226.657791,359.603821 232.217819,349.518707 
	C243.640884,328.798859 261.626862,316.872070 285.483612,314.812256 
	C292.201263,314.232269 299.011414,314.723663 306.016296,314.723663 
	C311.803619,290.315826 317.573212,265.982880 323.332947,241.691406 
	C308.030334,237.150925 290.469360,237.071426 261.026428,241.450897 
z"/>
<path fill="#B0D6EC" opacity="1.000000" stroke="none" 
	d="
M359.545624,186.577850 
	C358.589844,190.521530 357.764404,194.069504 356.852722,197.988266 
	C348.734283,197.122238 340.867310,196.047516 332.963867,195.486099 
	C312.878021,194.059357 293.017944,195.031952 273.905426,202.228363 
	C259.762421,207.553604 248.772736,216.642960 242.280533,230.393463 
	C239.806503,235.633438 236.325531,238.390274 230.976501,240.390579 
	C189.131668,256.038544 163.646637,287.099762 149.102661,328.275513 
	C148.343719,330.424225 147.512863,332.547546 146.668976,334.807251 
	C146.230316,334.431335 145.840561,334.256134 145.835617,334.070679 
	C144.515213,284.690887 152.420502,237.202377 175.788727,193.135422 
	C196.787506,153.536697 231.103073,132.059769 274.009399,123.192436 
	C305.716431,116.639626 337.552399,117.685165 369.316742,123.261917 
	C370.609253,123.488846 371.864960,123.925278 373.750153,124.427101 
	C369.029663,145.139801 364.352814,165.660980 359.545624,186.577850 
z"/>
<path fill="#FCFEFE" opacity="1.000000" stroke="none" 
	d="
M261.436096,241.333801 
	C290.469360,237.071426 308.030334,237.150925 323.332947,241.691406 
	C317.573212,265.982880 311.803619,290.315826 306.016296,314.723663 
	C299.011414,314.723663 292.201263,314.232269 285.483612,314.812256 
	C261.626862,316.872070 243.640884,328.798859 232.217819,349.518707 
	C226.657791,359.603821 223.458389,370.979340 218.969620,381.678070 
	C218.299911,383.274323 216.424255,385.501495 215.089630,385.513184 
	C190.780258,385.726410 166.468292,385.647766 142.156906,385.605957 
	C141.703583,385.605164 141.250778,385.298553 139.803619,384.774902 
	C142.903687,373.138824 145.541153,361.332031 149.206039,349.853241 
	C158.839615,319.680054 174.090515,292.930695 198.535049,272.095703 
	C216.753372,256.567535 237.680786,246.536880 261.436096,241.333801 
z"/>
</svg>